<svg xmlns="http://www.w3.org/2000/svg" viewBox="1634 1808 16 16">
  <g id="skypeBlack" transform="translate(1442 1727)">
    <path id="Contour" d="M15.414-7.7a4.45,4.45,0,0,1,.438,1.07A4.482,4.482,0,0,1,16-5.477a4.372,4.372,0,0,1-.16,1.188,4.53,4.53,0,0,1-.453,1.07,4.476,4.476,0,0,1-.7.906,4.476,4.476,0,0,1-.906.7,4.53,4.53,0,0,1-1.07.453A4.371,4.371,0,0,1,11.523-1a4.482,4.482,0,0,1-1.148-.148A4.45,4.45,0,0,1,9.3-1.586q-.328.055-.652.082T8-1.477a7.371,7.371,0,0,1-2-.27A7.633,7.633,0,0,1,4.2-2.5,7.485,7.485,0,0,1,2.68-3.68,7.485,7.485,0,0,1,1.5-5.2,7.633,7.633,0,0,1,.746-7a7.371,7.371,0,0,1-.27-2q0-.328.027-.652T.586-10.3a4.45,4.45,0,0,1-.437-1.07A4.482,4.482,0,0,1,0-12.523a4.371,4.371,0,0,1,.16-1.187,4.53,4.53,0,0,1,.453-1.07,4.476,4.476,0,0,1,.7-.906,4.476,4.476,0,0,1,.906-.7,4.53,4.53,0,0,1,1.07-.453A4.372,4.372,0,0,1,4.477-17a4.482,4.482,0,0,1,1.148.148,4.45,4.45,0,0,1,1.07.438q.328-.055.652-.082T8-16.523a7.371,7.371,0,0,1,2,.27,7.633,7.633,0,0,1,1.8.758A7.485,7.485,0,0,1,13.32-14.32,7.485,7.485,0,0,1,14.5-12.8a7.633,7.633,0,0,1,.758,1.8,7.371,7.371,0,0,1,.27,2q0,.328-.027.652T15.414-7.7ZM11.523-2.141a3.251,3.251,0,0,0,1.3-.262,3.363,3.363,0,0,0,1.063-.715A3.363,3.363,0,0,0,14.6-4.18a3.251,3.251,0,0,0,.262-1.3,3.084,3.084,0,0,0-.047-.559,3.414,3.414,0,0,0-.129-.492,3.667,3.667,0,0,0-.2-.469q-.117-.23-.266-.488.07-.383.117-.754A6.074,6.074,0,0,0,14.383-9a6.283,6.283,0,0,0-.227-1.7,6.365,6.365,0,0,0-.645-1.523,6.429,6.429,0,0,0-1-1.293,6.429,6.429,0,0,0-1.293-1A6.365,6.365,0,0,0,9.7-15.156,6.283,6.283,0,0,0,8-15.383a6.074,6.074,0,0,0-.762.047q-.371.047-.754.117-.258-.148-.488-.266a3.667,3.667,0,0,0-.469-.2,3.414,3.414,0,0,0-.492-.129,3.084,3.084,0,0,0-.559-.047,3.251,3.251,0,0,0-1.3.262,3.363,3.363,0,0,0-1.062.715A3.363,3.363,0,0,0,1.4-13.82a3.251,3.251,0,0,0-.262,1.3,3.084,3.084,0,0,0,.047.559,3.414,3.414,0,0,0,.129.492,3.667,3.667,0,0,0,.2.469q.117.23.266.488-.07.383-.117.754A6.074,6.074,0,0,0,1.617-9a6.282,6.282,0,0,0,.227,1.7,6.365,6.365,0,0,0,.645,1.523,6.429,6.429,0,0,0,1,1.293,6.429,6.429,0,0,0,1.293,1A6.365,6.365,0,0,0,6.3-2.844,6.282,6.282,0,0,0,8-2.617a6.074,6.074,0,0,0,.762-.047q.371-.047.754-.117.258.148.488.266a3.667,3.667,0,0,0,.469.2,3.414,3.414,0,0,0,.492.129A3.084,3.084,0,0,0,11.523-2.141ZM6.3-11.062a.607.607,0,0,0,.145.41,1.178,1.178,0,0,0,.355.277,2.365,2.365,0,0,0,.445.176q.234.066.422.105l1.7.375A4.776,4.776,0,0,1,10.3-9.4a2.6,2.6,0,0,1,.742.508,2.207,2.207,0,0,1,.488.73,2.5,2.5,0,0,1,.176.969,2.674,2.674,0,0,1-.148.922,2.434,2.434,0,0,1-.41.723,2.586,2.586,0,0,1-.613.539,3.6,3.6,0,0,1-.762.363,4.827,4.827,0,0,1-.855.207,6.031,6.031,0,0,1-.891.066,7.075,7.075,0,0,1-.945-.066,4.887,4.887,0,0,1-.953-.227A3.961,3.961,0,0,1,5.27-5.09a2.4,2.4,0,0,1-.676-.66,2.059,2.059,0,0,1-.219-.418,1.28,1.28,0,0,1-.086-.465.8.8,0,0,1,.07-.34.8.8,0,0,1,.191-.262A.851.851,0,0,1,4.832-7.4a.981.981,0,0,1,.34-.059.775.775,0,0,1,.449.121,1.547,1.547,0,0,1,.324.3q.148.184.3.395a2.072,2.072,0,0,0,.379.395,1.92,1.92,0,0,0,.563.3,2.516,2.516,0,0,0,.844.121,2.229,2.229,0,0,0,.555-.074,1.986,1.986,0,0,0,.535-.223A1.316,1.316,0,0,0,9.527-6.5a.928.928,0,0,0,.16-.543.784.784,0,0,0-.074-.348.868.868,0,0,0-.2-.266,1.049,1.049,0,0,0-.285-.184A2.387,2.387,0,0,0,8.8-7.953L6.516-8.531a4.583,4.583,0,0,1-.891-.32,2.488,2.488,0,0,1-.684-.484,1.965,1.965,0,0,1-.437-.687,2.6,2.6,0,0,1-.152-.93A2.348,2.348,0,0,1,4.664-12.2a2.484,2.484,0,0,1,.813-.824,3.589,3.589,0,0,1,1.129-.453,5.766,5.766,0,0,1,1.262-.141,4.346,4.346,0,0,1,.637.055,6.572,6.572,0,0,1,.75.16,5.071,5.071,0,0,1,.758.273,3.314,3.314,0,0,1,.664.395,1.96,1.96,0,0,1,.473.516,1.189,1.189,0,0,1,.18.641.7.7,0,0,1-.078.34.744.744,0,0,1-.207.242.876.876,0,0,1-.3.145,1.259,1.259,0,0,1-.34.047.729.729,0,0,1-.387-.1,1.535,1.535,0,0,1-.3-.242q-.141-.145-.293-.316a1.867,1.867,0,0,0-.371-.316,2.083,2.083,0,0,0-.535-.242,2.667,2.667,0,0,0-.777-.1,2.443,2.443,0,0,0-.508.055,1.551,1.551,0,0,0-.465.176.976.976,0,0,0-.336.324A.915.915,0,0,0,6.3-11.062Z" transform="translate(192 98)"/>
  </g>
</svg>
