<svg xmlns="http://www.w3.org/2000/svg" viewBox="1634 800 16 16">
  <g id="soccerBlack" transform="translate(1442 720)">
    <circle id="Fill1" fill="#fff" cx="8" cy="8" r="8" transform="translate(192 80)"/>
    <path id="Fill2" d="M-543.234-707.171l1.182-2.276,2.53-.42.242,1.456c-.192.2-.274.489-.481.665s-.415.414-.637.575-.508.254-.74.4-.535.164-.787.284Zm-4.881.383c-.231-.141-.49-.222-.712-.383s-.424-.428-.63-.6-.339-.434-.531-.635l.242-1.456,2.53.42,1.182,2.276-1.31.68C-547.6-706.611-547.882-706.646-548.114-706.787Zm1.875-4.166-1-3.056,2.6-1.89,2.6,1.89-1,3.056Zm5.783-3.4.382-2.536,1.46.22c.132.245.383.43.488.68s.288.532.373.793.086.58.149.843-.037.515,0,.791l-1.051,1.036Zm-11.206.791c.037-.276-.063-.527,0-.791s.13-.588.215-.848.267-.489.372-.74.291-.484.423-.729l1.46-.22.382,2.536-1.8,1.827Zm4.735-4.973.66-1.32a8.13,8.13,0,0,1,.8-.175c.27-.022.563-.076.836-.076s.568.054.839.076.521.125.8.175l.661,1.32-2.295,1.147Z" transform="translate(744.634 801)"/>
    <path id="Contour" d="M35,9a7,7,0,1,1-7,7,6.957,6.957,0,0,1,7-7m0-1a8,8,0,1,0,8,8,8.024,8.024,0,0,0-8-8Z" transform="translate(165 72)"/>
  </g>
</svg>
