<svg xmlns="http://www.w3.org/2000/svg" viewBox="1634 1556 16 16">  <g id="taxiBlack" transform="translate(1442 1475)">    <path id="Fill1" fill="white" d="M206.618,88.465H193.327l-.821,2.5v4.522h15V90.96Z"/>    <path id="Fill2" fill="white" d="M204,84.57h-8l-1.543.71L193.373,88.5h13.3l-1.1-3.222Z"/>    <path id="Fill3" fill="white" d="M202.46,82.543h-4.984l-.986,1.983h6.954Z"/>    <path fill="black" d="M3-7.937a.969.969,0,0,1,.391.078,1.016,1.016,0,0,1,.316.215,1.016,1.016,0,0,1,.215.316A.969.969,0,0,1,4-6.937a.969.969,0,0,1-.078.391,1.016,1.016,0,0,1-.215.316,1.016,1.016,0,0,1-.316.215A.969.969,0,0,1,3-5.937a.969.969,0,0,1-.391-.078,1.016,1.016,0,0,1-.316-.215,1.016,1.016,0,0,1-.215-.316A.969.969,0,0,1,2-6.937a.969.969,0,0,1,.078-.391,1.016,1.016,0,0,1,.215-.316,1.016,1.016,0,0,1,.316-.215A.969.969,0,0,1,3-7.937Zm10,0a.969.969,0,0,1,.391.078,1.016,1.016,0,0,1,.316.215,1.016,1.016,0,0,1,.215.316A.969.969,0,0,1,14-6.937a.969.969,0,0,1-.078.391,1.016,1.016,0,0,1-.215.316,1.016,1.016,0,0,1-.316.215A.969.969,0,0,1,13-5.937a.969.969,0,0,1-.391-.078,1.016,1.016,0,0,1-.316-.215,1.016,1.016,0,0,1-.215-.316A.969.969,0,0,1,12-6.937a.969.969,0,0,1,.078-.391,1.016,1.016,0,0,1,.215-.316,1.016,1.016,0,0,1,.316-.215A.969.969,0,0,1,13-7.937Zm3-2h-.289L15.2-9.43q.016.039.078.234t.152.461q.09.266.191.57t.188.559q.086.254.141.422L16-7.016v5.078a.969.969,0,0,1-.078.391,1.016,1.016,0,0,1-.215.316,1.016,1.016,0,0,1-.316.215A.969.969,0,0,1,15-.937H14a.969.969,0,0,1-.391-.078,1.016,1.016,0,0,1-.316-.215,1.016,1.016,0,0,1-.215-.316A.969.969,0,0,1,13-1.937H3a.969.969,0,0,1-.078.391,1.016,1.016,0,0,1-.215.316,1.016,1.016,0,0,1-.316.215A.969.969,0,0,1,2-.937H1a.969.969,0,0,1-.391-.078A1.016,1.016,0,0,1,.293-1.23a1.016,1.016,0,0,1-.215-.316A.969.969,0,0,1,0-1.937V-7.016l.055-.168Q.109-7.352.2-7.605t.188-.559q.1-.3.191-.57T.727-9.2q.062-.2.078-.234L.289-9.937H0v-1H.711l.445.453.578-1.742a2.41,2.41,0,0,1,.375-.723,2.4,2.4,0,0,1,.566-.535,2.636,2.636,0,0,1,.707-.336,2.734,2.734,0,0,1,.8-.117l.867-1.727a.476.476,0,0,1,.188-.2.5.5,0,0,1,.258-.074h5a.5.5,0,0,1,.258.074.476.476,0,0,1,.188.2l.867,1.727a2.734,2.734,0,0,1,.8.117,2.636,2.636,0,0,1,.707.336,2.4,2.4,0,0,1,.566.535,2.41,2.41,0,0,1,.375.723l.578,1.742.445-.453H16Zm-10.187-5-.5,1h5.375l-.5-1Zm-3.789,5H13.977l-.664-1.977a1.484,1.484,0,0,0-.543-.742,1.457,1.457,0,0,0-.879-.281H4.109a1.457,1.457,0,0,0-.879.281,1.484,1.484,0,0,0-.543.742Zm8.977,7V-3.32l-.812-1.617H5.813L5-3.32v.383Zm1,0h3V-6.859L14.953-7q-.047-.145-.121-.363t-.16-.48q-.086-.262-.164-.492t-.133-.395q-.055-.164-.07-.2H1.7q-.016.039-.07.2t-.133.395q-.078.23-.164.492t-.16.48q-.074.219-.121.363L1-6.859v3.922H4v-.617L5.188-5.937h5.625L12-3.555Z" transform="translate(192 97.938)"/>  </g></svg>